<?xml version="1.0" encoding="UTF-8"?>
<svg width="2000px" height="2000px" viewBox="0 0 2000 2000" version="1.1" xmlns="http://www.w3.org/2000/svg" xmlns:xlink="http://www.w3.org/1999/xlink">
    <!-- Generator: Sketch 54.1 (76490) - https://sketchapp.com -->
    <title>full-colour-white-petals</title>
    <desc>Created with Sketch.</desc>
    <g id="full-colour-white-petals" stroke="none" stroke-width="1" fill="none" fill-rule="evenodd">
        <path d="M800,50 L1825,50 C1894.03559,50 1950,105.964406 1950,175 L1950,1825 C1950,1894.03559 1894.03559,1950 1825,1950 L175,1950 C105.964406,1950 50,1894.03559 50,1825 L50,800 C50,385.786438 385.786438,50 800,50 Z" id="Rectangle" fill="#4A90E2"></path>
        <path d="M250,1050 L575,1050 C782.106781,1050 950,1217.89322 950,1425 C950,1632.10678 782.106781,1800 575,1800 C367.893219,1800 200,1632.10678 200,1425 L200,1100 C200,1072.38576 222.385763,1050 250,1050 Z M300,1150 L300,1425 C300,1576.87831 423.121694,1700 575,1700 C726.878306,1700 850,1576.87831 850,1425 C850,1273.12169 726.878306,1150 575,1150 L300,1150 Z" id="Bottom-Left-Petal,-Outlined" fill="#FFFFFF" fill-rule="nonzero" transform="translate(575.000000, 1425.000000) scale(-1, 1) translate(-575.000000, -1425.000000) "></path>
        <path d="M1100,1050 L1425,1050 C1632.10678,1050 1800,1217.89322 1800,1425 C1800,1632.10678 1632.10678,1800 1425,1800 C1217.89322,1800 1050,1632.10678 1050,1425 L1050,1100 C1050,1072.38576 1072.38576,1050 1100,1050 Z M1150,1150 L1150,1425 C1150,1576.87831 1273.12169,1700 1425,1700 C1576.87831,1700 1700,1576.87831 1700,1425 C1700,1273.12169 1576.87831,1150 1425,1150 L1150,1150 Z" id="Bottom-Right-Petal,-Outlined" fill="#FFFFFF" fill-rule="nonzero"></path>
        <path d="M1100,200 L1425,200 C1632.10678,200 1800,367.893219 1800,575 C1800,782.106781 1632.10678,950 1425,950 C1217.89322,950 1050,782.106781 1050,575 L1050,250 C1050,222.385763 1072.38576,200 1100,200 Z M1150,300 L1150,575 C1150,726.878306 1273.12169,850 1425,850 C1576.87831,850 1700,726.878306 1700,575 C1700,423.121694 1576.87831,300 1425,300 L1150,300 Z" id="Top-Right-Petal,-Outlined" fill="#FFFFFF" fill-rule="nonzero" transform="translate(1425.000000, 575.000000) scale(1, -1) translate(-1425.000000, -575.000000) "></path>
    </g>
</svg>