<?xml version="1.0" encoding="UTF-8"?>
<svg width="2000px" height="2000px" viewBox="0 0 2000 2000" version="1.1" xmlns="http://www.w3.org/2000/svg" xmlns:xlink="http://www.w3.org/1999/xlink">
    <!-- Generator: Sketch 54.1 (76490) - https://sketchapp.com -->
    <title>monochrome-light-alpha-petals</title>
    <desc>Created with Sketch.</desc>
    <g id="monochrome-light-alpha-petals" stroke="none" stroke-width="1" fill="none" fill-rule="evenodd">
        <g id="Logo,-light-monochrome-alpha-petals" transform="translate(50.000000, 50.000000)" fill="#FFFFFF">
            <path d="M750,0 L1775,0 C1844.03559,-1.26816328e-14 1900,55.9644063 1900,125 L1900,1775 C1900,1844.03559 1844.03559,1900 1775,1900 L125,1900 C55.9644063,1900 8.45442189e-15,1844.03559 0,1775 L0,750 C-5.07265313e-14,335.786438 335.786438,7.6089797e-14 750,0 Z M850,1000 L525,1000 C317.893219,1000 150,1167.89322 150,1375 C150,1582.10678 317.893219,1750 525,1750 C732.106781,1750 900,1582.10678 900,1375 L900,1050 C900,1022.38576 877.614237,1000 850,1000 Z M800,1100 L800,1375 C800,1526.87831 676.878306,1650 525,1650 C373.121694,1650 250,1526.87831 250,1375 C250,1223.12169 373.121694,1100 525,1100 L800,1100 Z M1050,1000 C1022.38576,1000 1000,1022.38576 1000,1050 L1000,1375 C1000,1582.10678 1167.89322,1750 1375,1750 C1582.10678,1750 1750,1582.10678 1750,1375 C1750,1167.89322 1582.10678,1000 1375,1000 L1050,1000 Z M1100,1100 L1375,1100 C1526.87831,1100 1650,1223.12169 1650,1375 C1650,1526.87831 1526.87831,1650 1375,1650 C1223.12169,1650 1100,1526.87831 1100,1375 L1100,1100 Z M1050,900 L1375,900 C1582.10678,900 1750,732.106781 1750,525 C1750,317.893219 1582.10678,150 1375,150 C1167.89322,150 1000,317.893219 1000,525 L1000,850 C1000,877.614237 1022.38576,900 1050,900 Z M1100,800 L1100,525 C1100,373.121694 1223.12169,250 1375,250 C1526.87831,250 1650,373.121694 1650,525 C1650,676.878306 1526.87831,800 1375,800 L1100,800 Z" id="Combined-Shape"></path>
        </g>
    </g>
</svg>