<?xml version="1.0" standalone="no"?>
<!DOCTYPE svg PUBLIC "-//W3C//DTD SVG 20010904//EN"
 "http://www.w3.org/TR/2001/REC-SVG-20010904/DTD/svg10.dtd">
<svg version="1.0" xmlns="http://www.w3.org/2000/svg"
 width="700.000000pt" height="700.000000pt" viewBox="0 0 700.000000 700.000000"
 preserveAspectRatio="xMidYMid meet">
<metadata>
Created by potrace 1.11, written by Peter Selinger 2001-2013
</metadata>
<g transform="translate(0.000000,700.000000) scale(0.100000,-0.100000)"
fill="#000000" stroke="none">
<path d="M2687 6824 c-1 -1 -40 -4 -87 -8 -367 -26 -713 -128 -1050 -308 -713
-380 -1231 -1118 -1345 -1913 -3 -23 -7 -50 -9 -60 -2 -11 -7 -63 -12 -115
-10 -125 -12 -3809 -2 -3880 22 -151 137 -285 295 -342 l58 -21 2940 -2 c1617
0 2963 3 2990 8 153 25 296 154 342 307 16 51 17 288 18 2985 1 2108 -2 2947
-10 2991 -24 133 -110 247 -232 312 -35 18 -63 31 -63 28 0 -3 -12 0 -27 6
-21 8 -526 12 -1916 12 -1039 1 -1889 1 -1890 0z m2558 -549 c529 -113 918
-504 1031 -1036 25 -118 25 -382 1 -499 -55 -259 -173 -484 -347 -660 -106
-107 -131 -128 -235 -196 -115 -75 -280 -147 -386 -170 -67 -14 -119 -23 -169
-30 -77 -10 -1298 -12 -1337 -2 -44 12 -92 54 -112 98 -14 33 -16 107 -15 676
0 351 4 664 8 694 20 148 80 336 147 457 95 173 252 350 404 455 174 121 384
202 575 224 30 4 57 8 59 10 12 11 306 -6 376 -21z m-2019 -2967 c41 -23 81
-71 92 -111 10 -38 8 -1282 -2 -1347 -4 -25 -9 -58 -12 -75 -16 -102 -82 -287
-140 -391 -124 -225 -336 -429 -564 -544 -119 -60 -274 -109 -400 -127 -108
-15 -347 -9 -435 11 -11 2 -42 9 -70 16 -213 48 -457 188 -619 354 -238 247
-363 543 -371 881 -6 243 32 420 137 630 194 387 595 667 1018 711 36 3 66 7
67 8 1 1 287 1 635 1 576 0 636 -2 664 -17z m1974 -1 c208 -38 359 -99 530
-212 95 -63 269 -236 338 -338 268 -391 304 -894 95 -1324 -177 -366 -516
-623 -933 -710 -131 -27 -374 -24 -510 6 -486 107 -858 453 -994 923 -13 46
-27 108 -31 138 -3 30 -9 64 -12 75 -4 11 -7 310 -8 665 -2 690 -2 685 48 738
29 31 54 44 97 52 19 3 319 5 665 4 522 -1 645 -4 715 -17z"/>
<path d="M4798 5930 c-346 -72 -609 -306 -724 -643 -44 -131 -47 -167 -49
-712 0 -286 0 -527 2 -535 4 -13 69 -15 521 -14 528 1 586 4 682 30 268 74
499 263 623 509 31 63 74 202 86 280 20 133 5 315 -35 439 -21 66 -85 195
-125 252 -112 164 -319 316 -504 370 -159 46 -329 55 -477 24z"/>
<path d="M1967 2974 c-1 -1 -29 -4 -62 -7 -33 -3 -69 -8 -80 -10 -373 -86
-636 -332 -741 -692 -31 -109 -41 -309 -20 -415 51 -257 179 -464 376 -610
101 -75 256 -146 356 -164 16 -3 40 -8 54 -12 58 -13 202 -16 284 -5 322 43
596 238 739 526 35 71 72 175 82 230 2 17 8 41 11 55 6 26 13 1064 7 1090 -4
13 -67 15 -504 15 -275 0 -501 0 -502 -1z"/>
<path d="M4028 2960 c-7 -27 -2 -1064 5 -1085 3 -11 9 -36 12 -55 19 -116 88
-268 175 -385 131 -176 337 -310 555 -361 109 -26 330 -25 430 0 224 58 414
182 548 358 128 169 194 365 194 576 1 424 -262 788 -667 921 -125 41 -167 44
-717 45 -470 1 -532 0 -535 -14z"/>
</g>
</svg>
